<svg xmlns="http://www.w3.org/2000/svg" width="1082" height="992" viewBox="0 0 1082 992" version="1.1"><path d="M 0 496.001 L 0 992.002 541.250 991.751 L 1082.500 991.500 1082.751 495.750 L 1083.002 0 541.501 0 L 0 0 0 496.001 M 0.496 496.500 C 0.496 769.300, 0.610 880.751, 0.750 744.168 C 0.890 607.586, 0.890 384.386, 0.750 248.168 C 0610 111.951, 0.496 223.700, 0.496 496.500 M 366.500 175.569 C 364.850 175.797, 359.450 176.482, 354.500 177.091 C 277.044 186.621, 204.911 249.261, 182.555 326.408 C 143.390 461.559, 242.076 618.116, 486.536 808.646 C 557.429 863.900, 550.766 862.773, 597.282 827.367 C 882.178 610.512, 983.937 436.849, 911.277 291.500 C 841.611 152.141, 655.311 135.356, 562.492 260.076 C 553.134 272.650, 554.930 272.647, 545.483 260.107 C 502.525 203.080, 426.688 167.260, 366.500 175.569 M 364 229.088 C 279.980 239.872, 217.468 321.187, 228.501 405.344 C 242.320 510.765, 341.805 631.025, 543.197 785.759 L 553.895 793.978 576.197 776.810 C 858.338 559.620, 946.619 387.303, 833.553 274.475 C 753.007 194.099, 631.131 221.268, 582.233 330.500 C 567.918 362.479, 540.236 363.407, 526.659 332.364 C 495.627 261.408, 431.148 220.469, 364 229.088" stroke="none" fill="#ffffff" fill-rule="evenodd"/><path d="M 366.500 175.569 C 364.850 175.797, 359.450 176.482, 354.500 177.091 C 277.044 186.621, 204.911 249.261, 182.555 326.408 C 143.390 461.559, 242.076 618.116, 486.536 808.646 C 557.429 863.900, 550.766 862.773, 597.282 827.367 C 882.178 610.512, 983.937 436.849, 911.277 291.500 C 841.611 152.141, 655.311 135.356, 562.492 260.076 C 553.134 272.650, 554.930 272.647, 545.483 260.107 C 502.525 203.080, 426.688 167.260, 366.500 175.569 M 364 229.088 C 279.980 239.872, 217.468 321.187, 228.501 405.344 C 242.320 510.765, 341.805 631.025, 543.197 785.759 L 553.895 793.978 576.197 776.810 C 858.338 559.620, 946.619 387.303, 833.553 274.475 C 753.007 194.099, 631.131 221.268, 582.233 330.500 C 567.918 362.479, 540.236 363.407, 526.659 332.364  C 495.627 261.408, 431.148 220.469, 364 229.088" stroke="none" fill="#b6c0c6" fill-rule="evenodd"/></svg>