<svg xmlns="http://www.w3.org/2000/svg" width="1008" height="1059" viewBox="0 0 1008 1059" version="1.1"><path d="M 0 529.501 L 0 1059.002 504.250 1058.751 L 1008.500 1058.500 1008.751 529.250 L 1009.002 0 504.501 0 L 0 0 0 529.501 M 0.496 530 C 0.496 821.225, 0.610 940.363, 0.750 794.750 C 0.890 649.138, 0.890 410.863, 0.750 265.250 C 0.610 119.638, 0.496 238.775, 0.496 530 M 475 163.687 C 199.619 184.352, 31.094 478.599, 154.118 723.951 C 288.129 991.215, 661.692 1015.889, 828.599 768.500 C 1009.714 500.051, 798.854 139.385, 475 163.687 M 481.443 219.967 C 207.696 240.209, 69.556 571.298, 251.995 769.899 C 256.892 775.230, 256.774 775.328, 258.029 764.908 C 266.162 697.343, 324.370 652.682, 426 636.029 C 597.260 607.967, 750.750 671.161, 750.989 769.833 C 751.011 778.820, 771.865 754.346, 791.076 722.788 C 929.768 494.956, 748.282 200.235, 481.443 219.967 M 479.701 308.063 C 381.892 325.284, 333.947 438.322, 390.036 519.459 C 455.578 614.268, 600.008 593.521, 635.962 484.132 C 667.926 386.881, 581.991 290.053, 479.701 308.063 M 492.315 362.939 C 424.655 373.725, 399.677 454.667, 449.466 501.796 C 493.775 543.738, 568.813 521.368, 582.960 462 C 596.227 406.328, 548.351 354.006, 492.315 362.939 M 479 687.004 C 399.580 691.803, 336.363 717.104, 320.552 750.419 C 315.346 761.390, 314.834 765.076, 314.296 795.505 C 313.717 828.249, 311.818 823.436, 329.766 834.708 C 437.024 902.064, 583.159 899.656, 688.250 828.802 L 694 824.925 693.983 797.713 C 693.963 766.931, 693.151 760.820, 687.578 749.492 C 667.690 709.070, 574.730 681.220, 479 687.004" stroke="none" fill="#ffffff" fill-rule="evenodd"/><path d="M 475 163.687 C 199.619 184.352, 31.094 478.599, 154.118 723.951 C 288.129 991.215, 661.692 1015.889, 828.599 768.500 C 1009.714 500.051, 798.854 139.385, 475 163.687 M 481.443 219.967 C 207.696 240.209, 69.556 571.298, 251.995 769.899 C 256.892 775.230, 256.774 775.328, 258.029 764.908 C 266.162 697.343, 324.370 652.682, 426 636.029 C 597.260 607.967, 750.750 671.161, 750.989 769.833 C 751.011 778.820, 771.865 754.346, 791.076 722.788 C 929.768 494.956, 748.282 200.235, 481.443 219.967 M 479.701 308.063 C 381.892 325.284, 333.947 438.322, 390.036 519.459 C 455.578 614.268, 600.008 593.521, 635.962 484.132 C 667.926 386.881, 581.991 290.053, 479.701 308.063 M 492.315 362.939 C 424.655 373.725, 399.677 454.667, 449.466 501.796 C 493.775 543.738, 568.813 521.368, 582.960 462 C 596.227 406.328, 548.351 354.006, 492.315 362.939 M 479 687.004 C 399.580 691.803, 336.363 717.104, 320.552 750.419 C 315.346 761.390, 314.834 765.076, 314.296 795.505 C 313.717 828.249, 311.818 823.436, 329.766 834.708 C 437.024 902.064, 583.159 899.656, 688.250 828.802 L 694 824.925 693.983 797.713 C 693.963 766.931, 693.151 760.820, 687.578 749.492 C 667.690 709.070, 574.730 681.220, 479 687.004" stroke="none" fill="#bcc2c7" fill-rule="evenodd"/></svg>